<svg width="36" height="36" viewBox="0 0 36 36" fill="none" xmlns="http://www.w3.org/2000/svg">
<path d="M12.0911 14.277C16.8046 12.0228 20.4934 8.19734 22.611 3.41556C21.2448 1.98102 19.4687 0.956357 17.556 0.341556L16.5313 0C16.463 0.136622 16.3947 0.341564 16.3947 0.478187C14.7552 5.12335 11.408 8.88046 6.89944 10.9981C3.75712 12.501 1.43454 15.2334 0.341556 18.5123L0 19.537C0.136622 19.6053 0.341559 19.6736 0.478182 19.6736C1.77609 20.1518 3.07401 20.7666 4.30361 21.518C6.01139 18.444 8.74383 15.8482 12.0911 14.277Z" fill="#1568E5"/>
<path d="M31.9013 14.5503C29.3738 18.3757 25.8899 21.4497 21.5863 23.4991C18.1025 25.1385 15.4383 28.2126 14.2087 31.9014L13.8672 33.0626C15.1651 34.2239 16.7362 35.112 18.444 35.6585L19.4687 36C19.537 35.8634 19.6053 35.6585 19.6053 35.5218C21.2448 30.8767 24.592 27.1196 29.1006 25.0019C32.2429 23.4991 34.6338 20.7666 35.6584 17.4877L36 16.463C34.5654 16.0532 33.1992 15.37 31.9013 14.5503Z" fill="#1568E5"/>
<path d="M11.1348 29.5105C12.8425 25.4119 15.9848 22.0646 20.0152 20.1519C23.704 18.3758 26.778 15.6434 28.8957 12.2961C27.3245 10.7933 26.0266 9.08547 25.0702 7.03613C22.5427 11.6813 18.5807 15.4384 13.7306 17.761C10.9298 19.0589 8.67555 21.3132 7.30933 24.0456C8.81217 25.4802 10.0418 27.2562 10.9981 29.2373C10.9981 29.2373 11.0664 29.3739 11.1348 29.5105Z" fill="#1568E5"/>
</svg>
