<svg width="146" height="146" viewBox="0 0 146 146" fill="none" xmlns="http://www.w3.org/2000/svg">
<circle cx="73" cy="73" r="72.5" stroke="#15E575" stroke-dasharray="5 5"/>
<path d="M30 54.4986H106.038V51.2033C106.038 48.4282 103.776 46 100.992 46H35.22C32.436 46 30 48.2547 30 51.2033V54.4986Z" fill="#DFE3ED"/>
<path d="M82.548 94.5636C82.548 84.1571 91.0741 75.6585 101.514 75.6585C103.08 75.6585 104.646 75.8319 106.038 76.1788V61.4363H30V94.0433C30 96.8184 32.262 99.2466 35.22 99.2466H83.244C82.722 97.6856 82.548 96.1246 82.548 94.5636ZM55.578 88.6666C55.578 89.7073 54.882 90.401 53.838 90.401H39.918C39.048 90.401 38.178 89.7073 38.178 88.6666V80.3414C38.178 79.4742 39.048 78.607 39.918 78.607H53.838C54.882 78.607 55.578 79.4742 55.578 80.3414V88.6666Z" fill="#DFE3ED"/>
<path d="M101.514 79.1274C92.988 79.1274 86.028 86.0651 86.028 94.5638C86.028 103.062 92.988 110 101.514 110C110.04 110 117 103.062 117 94.5638C117 86.0651 110.04 79.1274 101.514 79.1274ZM108.126 91.9621L100.296 99.767C99.948 100.114 99.426 100.287 99.078 100.287C98.73 100.287 98.208 100.114 97.86 99.767L94.728 96.6451C94.032 95.9513 94.032 94.9106 94.728 94.2169C95.424 93.5231 96.468 93.5231 97.164 94.2169L98.904 95.9513L105.516 89.3605C106.212 88.6667 107.256 88.6667 107.952 89.3605C108.648 90.0543 108.822 91.2684 108.126 91.9621Z" fill="#15E575"/>
</svg>
