<svg width="30" height="30" viewBox="0 0 30 30" fill="none" xmlns="http://www.w3.org/2000/svg">
<path d="M30 15C30 6.71636 23.2836 0 15 0C6.71635 0 0 6.71636 0 15C0 22.4863 5.48446 28.6922 12.6564 29.8186V19.3369H8.84686V15H12.6564V11.6946C12.6564 7.93559 14.8966 5.85783 18.3223 5.85783C19.9634 5.85783 21.6805 6.15103 21.6805 6.15103V9.8425H19.7884C17.9257 9.8425 17.3436 10.9985 17.3436 12.1861V15H21.5033L20.8388 19.3369H17.3436V29.8186C24.5155 28.6943 30 22.4884 30 15Z" fill="#1977F3"/>
<path d="M20.8388 19.3369L21.5033 15H17.3436V12.1861C17.3436 11.0006 17.9236 9.8425 19.7884 9.8425H21.6805V6.15103C21.6805 6.15103 19.9634 5.85783 18.3223 5.85783C14.8966 5.85783 12.6565 7.93348 12.6565 11.6946V15H8.84686V19.3369H12.6565V29.8186C13.4201 29.9388 14.2026 30 15 30C15.7974 30 16.58 29.9367 17.3436 29.8186V19.3369H20.8388Z" fill="#FEFEFE"/>
</svg>
