<svg width="36" height="36" viewBox="0 0 36 36" fill="none" xmlns="http://www.w3.org/2000/svg">
<path fill-rule="evenodd" clip-rule="evenodd" d="M18 36C27.9411 36 36 27.9411 36 18C36 8.05887 27.9411 0 18 0C8.05887 0 0 8.05887 0 18C0 27.9411 8.05887 36 18 36ZM21.3981 17.2134C19.6331 17.2134 18.1942 15.7746 18.1942 14.0096V10H14.2038C12.4389 10 11 11.4388 11 13.2038V22.7962C11 24.5611 12.4389 26 14.2038 26H22.1847C23.9496 26 25.3885 24.5611 25.3885 22.7962V17.2134H21.3981ZM18.1942 23.6019H14.9904C14.5492 23.6019 14.1847 23.2374 14.1847 22.7962C14.1847 22.3549 14.5492 21.9904 14.9904 21.9904H18.1942C18.6355 21.9904 19 22.3549 19 22.7962C19 23.2374 18.6355 23.6019 18.1942 23.6019ZM21.3789 20.3981H14.9904C14.5492 20.3981 14.2038 20.0336 14.1847 19.5923C14.1847 19.1511 14.5492 18.7866 14.9904 18.7866H21.3789C21.8201 18.7866 22.1847 19.1511 22.1847 19.5923C22.1847 20.0336 21.8201 20.3981 21.3789 20.3981ZM21.3981 15.6019H24.9281L19.8058 10.4796V14.0096C19.8058 14.8921 20.5156 15.6019 21.3981 15.6019Z" fill="#FFBE00"/>
</svg>
