<svg width="36" height="36" viewBox="0 0 36 36" fill="none" xmlns="http://www.w3.org/2000/svg">
<path d="M18 0C14.4399 0 10.9598 1.05568 7.99974 3.03355C5.03966 5.01141 2.73255 7.82263 1.37018 11.1117C0.00779918 14.4008 -0.348661 18.02 0.345873 21.5116C1.04041 25.0033 2.75474 28.2106 5.27209 30.7279C7.78943 33.2453 10.9967 34.9596 14.4884 35.6541C17.98 36.3487 21.5992 35.9922 24.8883 34.6298C28.1774 33.2674 30.9886 30.9603 32.9665 28.0003C34.9443 25.0402 36 21.5601 36 18C36 13.2261 34.1036 8.64773 30.7279 5.27208C27.3523 1.89642 22.7739 0 18 0ZM23.4327 19.3582L18 24.5455L12.5673 19.3582C12.2137 19.0233 11.9321 18.6199 11.7397 18.1725C11.5472 17.7252 11.448 17.2433 11.448 16.7564C11.448 16.2694 11.5472 15.7875 11.7397 15.3402C11.9321 14.8928 12.2137 14.4894 12.5673 14.1545C13.3057 13.4691 14.2761 13.0881 15.2836 13.0881C16.2912 13.0881 17.2615 13.4691 18 14.1545C18.7385 13.4691 19.7088 13.0881 20.7164 13.0881C21.7239 13.0881 22.6943 13.4691 23.4327 14.1545C23.7863 14.4894 24.0679 14.8928 24.2603 15.3402C24.4528 15.7875 24.552 16.2694 24.552 16.7564C24.552 17.2433 24.4528 17.7252 24.2603 18.1725C24.0679 18.6199 23.7863 19.0233 23.4327 19.3582Z" fill="#FFBE00"/>
</svg>
