<svg width="30" height="30" viewBox="0 0 30 30" fill="none" xmlns="http://www.w3.org/2000/svg">
<g clip-path="url(#clip0_107_81)">
<path d="M15 30C23.2843 30 30 23.2843 30 15C30 6.71573 23.2843 0 15 0C6.71573 0 0 6.71573 0 15C0 23.2843 6.71573 30 15 30Z" fill="url(#paint0_linear_107_81)"/>
<path d="M10.1536 16.0965L11.9333 21.0223C11.9333 21.0223 12.1558 21.4831 12.394 21.4831C12.6323 21.4831 16.1759 17.7966 16.1759 17.7966L20.1165 10.1854L10.2171 14.825L10.1536 16.0965Z" fill="#C8DAEA"/>
<path d="M12.5132 17.3597L12.1716 20.9905C12.1716 20.9905 12.0286 22.103 13.1409 20.9905C14.2531 19.878 15.3177 19.0201 15.3177 19.0201" fill="#A9C6D8"/>
<path d="M10.1857 16.2722L6.525 15.0795C6.525 15.0795 6.0875 14.902 6.22837 14.4995C6.25737 14.4165 6.31587 14.3459 6.49087 14.2245C7.302 13.6591 21.5041 8.5545 21.5041 8.5545C21.5041 8.5545 21.9051 8.41937 22.1416 8.50925C22.2001 8.52736 22.2528 8.56069 22.2942 8.60582C22.3356 8.65095 22.3642 8.70627 22.3772 8.76612C22.4028 8.87183 22.4135 8.98059 22.409 9.08925C22.4079 9.18325 22.3965 9.27037 22.3879 9.407C22.3014 10.8026 19.7129 21.2186 19.7129 21.2186C19.7129 21.2186 19.558 21.8281 19.0031 21.849C18.8668 21.8534 18.7309 21.8303 18.6037 21.7811C18.4764 21.7319 18.3604 21.6575 18.2625 21.5625C17.1736 20.6259 13.4101 18.0966 12.5785 17.5404C12.5597 17.5276 12.5439 17.5109 12.5322 17.4915C12.5204 17.4721 12.5129 17.4504 12.5102 17.4279C12.4986 17.3692 12.5624 17.2966 12.5624 17.2966C12.5624 17.2966 19.1156 11.4716 19.29 10.8601C19.3035 10.8127 19.2525 10.7894 19.184 10.8101C18.7487 10.9702 11.2035 15.7351 10.3707 16.261C10.3108 16.2791 10.2474 16.283 10.1857 16.2722Z" fill="white"/>
</g>
<defs>
<linearGradient id="paint0_linear_107_81" x1="15" y1="30" x2="15" y2="0" gradientUnits="userSpaceOnUse">
<stop stop-color="#1D93D2"/>
<stop offset="1" stop-color="#38B0E3"/>
</linearGradient>
<clipPath id="clip0_107_81">
<rect width="30" height="30" fill="white"/>
</clipPath>
</defs>
</svg>
